<svg width="41" height="42" viewBox="0 0 41 42" fill="none" xmlns="http://www.w3.org/2000/svg">
<g id="noun_Pie Chart_4196192 1" clip-path="url(#clip0_746_33)">
<g id="Group 2">
<g id="Group">
<path id="Vector" d="M12.1409 3.44915C12.0957 3.36197 12.0682 3.26675 12.0598 3.16892C12.0514 3.07109 12.0624 2.97257 12.0921 2.87899C12.1219 2.78541 12.1697 2.6986 12.233 2.62352C12.2963 2.54844 12.3737 2.48656 12.4609 2.44142C15.1365 1.08085 18.1086 0.407531 21.1093 0.482154C24.11 0.556777 27.0449 1.377 29.6495 2.86888C29.735 2.91801 29.8098 2.98357 29.8698 3.06177C29.9298 3.13998 29.9737 3.22929 29.9989 3.32455C30.0242 3.4198 30.0304 3.51912 30.0171 3.61678C30.0038 3.71443 29.9713 3.80848 29.9215 3.89351L21.3168 18.6609C21.2512 18.774 21.1569 18.8678 21.0435 18.933C20.9302 18.9981 20.8016 19.0323 20.6709 19.0321H20.6519C20.5179 19.0285 20.3874 18.9892 20.2738 18.9181C20.1602 18.847 20.0677 18.7469 20.0059 18.628L12.1409 3.44915ZM20.2093 22.9705V22.969L12.344 7.79015C12.2527 7.61442 12.0955 7.48197 11.9069 7.42171C11.7182 7.36145 11.5134 7.37827 11.3371 7.46851C9.24088 8.54333 7.37759 10.0215 5.85416 11.8183C4.33072 13.6151 3.17712 15.695 2.45956 17.9387C1.74201 20.1825 1.47463 22.5458 1.67278 24.8931C1.87092 27.2405 2.53069 29.5256 3.61421 31.6173C4.69773 33.709 6.18367 35.5661 7.98674 37.082C9.78982 38.598 11.8745 39.7429 14.1212 40.4512C16.3679 41.1594 18.7324 41.4169 21.0788 41.209C23.4253 41.0011 25.7077 40.3319 27.7948 39.2397C27.9701 39.1479 28.102 38.9905 28.1617 38.8018C28.2214 38.6131 28.2041 38.4085 28.1135 38.2326L20.2093 22.9705ZM29.4289 37.3176L29.4888 37.4374C29.5792 37.6139 29.7349 37.7481 29.9228 37.8115C29.9999 37.8371 30.0813 37.8473 30.1623 37.8415C30.2807 37.8382 30.3975 37.8128 30.5065 37.7666C30.779 37.6316 31.0438 37.4817 31.2998 37.3176C32.061 36.876 32.7866 36.3756 33.47 35.8209H28.6506L29.4289 37.3176ZM27.8724 34.3242H35.1014C35.5662 33.8572 35.9964 33.357 36.3885 32.8276H27.0941L27.8724 34.3242ZM26.3308 31.3309H37.4512C37.7578 30.8504 38.0327 30.3504 38.2744 29.8342H25.5525L26.3308 31.3309ZM24.7742 28.3375H38.9329C39.1315 27.8489 39.3014 27.3492 39.4418 26.8408H23.9959L24.7742 28.3375ZM23.2176 25.3441H39.816C39.9058 24.8502 39.9806 24.3563 40.0255 23.8474H22.4543L23.2176 25.3441ZM31.2399 6.42592C31.1559 6.37368 31.0617 6.33998 30.9636 6.32707C30.8655 6.31417 30.7658 6.32235 30.6712 6.35108C30.5742 6.37322 30.4829 6.41525 30.4031 6.47451C30.3232 6.53376 30.2565 6.60895 30.2072 6.69532L29.8031 7.3838H32.6917C32.2253 7.03877 31.7406 6.71902 31.2399 6.42592ZM34.5027 8.88049H28.935L28.0669 10.3772H35.9246C35.4817 9.84961 35.0069 9.34977 34.5027 8.88049ZM37.0471 11.8739H27.1839L26.3158 13.3706H37.9601C37.69 12.8516 37.385 12.3515 37.0471 11.8739ZM38.6785 14.8673H25.4477L24.5796 16.3639H39.2622C39.0963 15.8543 38.9014 15.3546 38.6785 14.8673ZM39.6813 17.8606H23.6966L22.8285 19.3573H39.9507C39.8912 18.8534 39.8013 18.3536 39.6813 17.8606ZM40.1003 20.854H21.9604L21.6012 21.4677C21.5364 21.5757 21.5009 21.6989 21.4982 21.8249C21.4956 21.9509 21.526 22.0754 21.5863 22.1861L21.6761 22.3507H40.1303C40.1452 22.201 40.1452 22.0364 40.1452 21.8867C40.1452 21.5425 40.1303 21.1983 40.1003 20.854Z" fill="white"/>
</g>
<path id="Ellipse 1" d="M11.7971 6.72859C11.5227 6.20873 10.877 6.00719 10.3733 6.31022C6.38598 8.7092 3.40697 12.4984 2.02534 16.9679C0.538648 21.7772 1.02334 26.9801 3.3728 31.4321C5.72226 35.8841 9.74402 39.2204 14.5534 40.7071C19.0228 42.0887 23.8321 41.7677 28.0628 39.8298C28.5972 39.585 28.7952 38.9382 28.5209 38.4183L20.159 22.5735L11.7971 6.72859Z" fill="white"/>
</g>
</g>
<defs>
<clipPath id="clip0_746_33">
<rect width="39.5669" height="42.0924" fill="white" transform="translate(0.841553 -0.190674)"/>
</clipPath>
</defs>
</svg>
